<?xml version="1.0" encoding="UTF-8"?>
<svg width="87px" height="32px" viewBox="0 0 87 32" version="1.1" xmlns="http://www.w3.org/2000/svg" xmlns:xlink="http://www.w3.org/1999/xlink">
    <!-- Generator: Sketch 64 (93537) - https://sketch.com -->
    <title>logo_ck12</title>
    <desc>Created with Sketch.</desc>
    <g id="Page-1" stroke="none" stroke-width="1" fill="none" fill-rule="evenodd">
        <g id="CK12" transform="translate(-128.000000, -24.000000)" fill-rule="nonzero">
            <g id="Group-17" transform="translate(128.000000, 24.000000)">
                <g id="logo_ck12">
                    <path d="M16.9330709,30.2570528 C15.9068241,30.7135745 13.6089239,31.4961832 10.7532808,31.4961832 C4.23884514,31.4961832 0,27.1700962 0,20.7135745 C0,14.2135745 4.5511811,9.49618321 11.5787402,9.49618321 C13.8989501,9.49618321 15.9514436,10.0614006 17,10.626618 L16.1076115,13.5179223 C15.1929134,13.0614006 13.675853,12.5179223 11.5564304,12.5179223 C6.60367454,12.5179223 3.9488189,16.1048789 3.9488189,20.4961832 C3.9488189,25.3657484 7.16141732,28.3440093 11.4225722,28.3440093 C13.6535433,28.3440093 15.1036745,27.8222702 16.2414698,27.3440093 L16.9330709,30.2570528 Z" id="Path" fill="#FF6633"></path>
                    <polygon id="Path" fill="#99CC66" points="52 17.4961832 52 20.4961832 41 20.4961832 41 17.4961832"></polygon>
                    <polygon id="Path" fill="#99CC66" points="59.1200924 6.11002936 59.0046189 6.11002936 53.7852194 8.85387551 53 5.88695244 59.5357968 2.49618321 63 2.49618321 63 31.4961832 59.073903 31.4961832 59.073903 6.11002936"></polygon>
                    <path d="M69.0217391,31.4742467 L69.0217391,29.1270455 L72.0217391,26.2094964 C79.2391304,19.2556386 82.5434783,15.5703133 82.5434783,11.2707672 C82.5434783,8.37515446 81.2173913,5.69890635 76.9782609,5.69890635 C74.4130435,5.69890635 72.2826087,7.01509395 70.9782609,8.11191694 L69.7391304,5.39179591 C71.6304348,3.79043434 74.4565217,2.49618321 77.7173913,2.49618321 C83.7391304,2.49618321 86.3043478,6.68604705 86.3043478,10.7881651 C86.3043478,16.0529154 82.5,20.2866522 76.5869565,26.0998141 L74.3478261,28.2057142 L74.3478261,28.3153965 L87,28.3153965 L87,31.4961832 L69,31.4961832 L69,31.4742467 L69.0217391,31.4742467 Z" id="Path" fill="#99CC66"></path>
                    <path d="M41.4814324,28.0295165 C41.7519894,27.5850721 41.9323607,27.1184054 42,26.673961 C42,26.673961 34.2665782,16.1628499 26.127321,15.1406277 C26.2400531,15.0961832 26.4655172,15.0072943 26.4655172,15.0072943 C32.8461538,13.4517388 38.5503979,8.07396098 39.7453581,5.71840543 C39.7904509,5.60729432 39.5424403,5.07396098 39.5424403,4.96284987 C37.4681698,7.67396098 35.0782493,10.9850721 27.9761273,14.3184054 C34.8076923,10.9406277 39.362069,4.11840543 39.362069,4.11840543 C39.362069,4.11840543 39.2493369,3.78507209 38.9787798,3.27396098 C38.1220159,4.56284987 36.1153846,7.18507209 32.0795756,10.5184054 C35.6419098,7.00729432 37.9416446,3.87396098 38.7082228,2.78507209 C38.2572944,2.09618321 37.535809,1.25173876 36.3859416,0.496183206 C34.2214854,3.96284987 28.7201592,10.1184054 25,12.8517388 L25,17.5850721 C28.6525199,20.1406277 32.6657825,24.0072943 37.1074271,31.4961832 C38.1445623,31.0961832 39.632626,30.1406277 40.6697613,29.0072943 C39.632626,26.3628499 35.8448276,21.5628499 32.4177719,18.4961832 C36.5888594,20.9184054 39.2493369,24.473961 41.4814324,28.0295165 Z" id="Path" fill="#009966"></path>
                    <polygon id="Path" fill="#99CC66" points="24 15.9843138 24 1.49618321 20 1.49618321 20 31.4961832 24 31.4961832 24 20.0792693"></polygon>
                </g>
            </g>
        </g>
    </g>
</svg>