<?xml version="1.0" encoding="UTF-8"?>
<svg xmlns="http://www.w3.org/2000/svg" viewBox="0 0 1146.02 382.8">
  <defs>
    <style>.cls-1{fill:#7d00ce;}</style>
  </defs>
  <g id="Layer_2" data-name="Layer 2">
    <g id="Layer_1-2" data-name="Layer 1">
      <path class="cls-1" d="M691,23.59a20.84,20.84,0,0,0-21.77,14.8,1099.94,1099.94,0,0,0-33.93,149.75C618.54,133.57,600.77,86,599.5,82.58a20.84,20.84,0,0,0-40.28,9c5.86,72.23-3.8,185.2-21.54,251.83A20.84,20.84,0,1,0,578,354.12c10.15-38.12,17.73-89,21.66-140,10.25,34.42,19.41,69.95,22.88,96.55a20.83,20.83,0,0,0,41.44-1.19C667.8,256.15,673.3,210,681.29,166c6.56,66.68,12.93,142.74,11.54,175.17A20.84,20.84,0,0,0,734.47,343C737.3,276.48,711,51.46,709.9,41.92A20.82,20.82,0,0,0,691,23.59Z"></path>
      <path class="cls-1" d="M802.32,52.7A20.83,20.83,0,0,0,763.1,62.86l5.31,299.47a20.84,20.84,0,0,0,20.83,20.47,18.82,18.82,0,0,0,2.24-.13l145.75-15.76a20.84,20.84,0,0,0,16.15-30.51Zm7.35,286.09-3.37-190,95.82,180Z"></path>
      <path class="cls-1" d="M949,62.29c5-1.14,10-2.32,14.77-3.47,19.51-4.67,37.94-9.08,55.14-9.26a20.84,20.84,0,0,0-.22-41.67h-.22c-21.89.23-42.54,5.17-64.4,10.4C924.53,25.36,894,32.68,858.45,28A20.84,20.84,0,0,0,853,69.28a215.71,215.71,0,0,0,28.38,1.86,238.68,238.68,0,0,0,26.23-1.5c2.87,71.35,16.25,136.14,27.55,179.55a20.84,20.84,0,1,0,40.33-10.49C964.4,196.17,951.23,132.17,949,62.29Z"></path>
      <path class="cls-1" d="M1143.56,19.94a20.83,20.83,0,1,0-41.63,1.8c1.91,44,2.48,96.59,2.42,147.16-19.66,15.15-38.6,25-61,31.53-1.28-28.71-3.35-53.68-5.07-74.37-.6-7.3-1.17-14.14-1.65-20.52A20.83,20.83,0,0,0,995,108.69c.49,6.46,1.06,13.41,1.67,20.81,4.36,52.55,10.32,124.51,2,215.85A20.83,20.83,0,0,0,1017.6,368c.64.06,1.27.09,1.91.09a20.83,20.83,0,0,0,20.72-18.95c3.49-38.38,4.52-73.84,4.24-105.85a217,217,0,0,0,59.62-23.94c-.42,49.78-1.28,93.34-1.77,118.62-.26,13-.41,20.8-.41,24a20.84,20.84,0,1,0,41.67,0c0-2.8.17-11.35.4-23.19C1145.12,280.53,1148.15,125.82,1143.56,19.94Z"></path>
      <path class="cls-1" d="M89.81,168.26c31.07-41.6,41.15-77.88,30-108.17C101.08,9.36,31.26.5,28.29.15A20.82,20.82,0,0,0,5.16,18.29c-9,73.21-10,257.41,28.69,351.48A20.81,20.81,0,0,0,61,381.14c37-15.1,63.51-36.65,78.83-64.05a105.94,105.94,0,0,0,10.24-78.91C141.37,205,118.17,179.43,89.81,168.26ZM44.3,46.62c2.08.7,4.24,1.49,6.41,2.38,11.08,4.54,25.29,12.66,30,25.59,7,19.21-6.54,49.54-38.3,86C41,116.82,42.13,76.08,44.3,46.62ZM65.05,333.05c-9.87-32.65-16.84-76.66-20.48-129.47a20.66,20.66,0,0,0,8,.54c25.12-3.16,49.71,16,57.21,44.62C113.13,261.63,118.68,302.74,65.05,333.05Z"></path>
      <path class="cls-1" d="M306.26,113a20.83,20.83,0,0,0-41.51-3.63c-1.2,13.71,0,33.86,1.45,57.18,3,49.28,8,131.76-16.42,154.3-3.48,3.22-9.05,6.68-21.22,4.95-14-2-16.41-11.12-18.09-22.82-2.87-20,.37-49.4,4.13-83.4,4.28-38.74,9.14-82.65,6.91-128.71a20.83,20.83,0,1,0-41.62,2c2.07,42.76-2.59,84.92-6.71,122.12-4.07,36.83-7.58,68.63-4,93.89,3.38,23.54,15.39,52.73,53.46,58.16a84,84,0,0,0,11.81.86c20.92,0,35-8.56,43.54-16.42,39-36,33.87-120,29.76-187.47C306.52,143.29,305.33,123.67,306.26,113Z"></path>
      <path class="cls-1" d="M441.12,305.54c-27.94,8.09-54.13,8.66-70.08,7.9-1.27-32.3,2.45-84.29,10.94-152.24,7.76-62.14,16.84-115.81,16.93-116.35a20.83,20.83,0,0,0-17.46-24.09c-2.33-.35-57.72-8.36-105.27,10a20.84,20.84,0,0,0,15,38.89c21.4-8.25,46-9.54,63-9.14C345,118.45,322.7,271.17,331,335.21a20.84,20.84,0,0,0,17.13,17.86,212.36,212.36,0,0,0,33.36,2.31,258.56,258.56,0,0,0,71.23-9.82,20.83,20.83,0,1,0-11.59-40Z"></path>
      <path class="cls-1" d="M510.42,240.61a444.88,444.88,0,0,1-62.24-1.77C474.56,161,545.93,51,546.72,49.74a20.84,20.84,0,0,0-10.79-31.12c-2.09-.71-51.69-17.16-101.31-9.31a20.84,20.84,0,0,0,6.51,41.16c19.53-3.09,39.68-1.26,55.05,1.39C469.28,95.77,416,188,401.18,251.51a20.84,20.84,0,0,0,16.28,25.17c1.42.27,31.05,6,74.25,6,6.53,0,13.37-.13,20.47-.43a20.83,20.83,0,0,0-1.76-41.63Z"></path>
    </g>
  </g>
</svg>
