<?xml version="1.0" encoding="UTF-8"?><svg id="a" xmlns="http://www.w3.org/2000/svg" xmlns:xlink="http://www.w3.org/1999/xlink" viewBox="0 0 240.15 59.73"><defs><style>.c{fill:none;}.d{fill:#fff;}.e{fill:#40b0e5;}.f{clip-path:url(#b);}</style><clipPath id="b"><rect class="c" x=".15" width="240" height="59.73"/></clipPath></defs><path class="d" d="M95.58,42.17h-12.14v-9.82h11.44c.62,0,1.02-.38,1.02-.98v-3.54c0-.6-.42-1.03-1.02-1.03h-11.44v-9.02h12.14c.59,0,.98-.4,.98-1.02v-3.49c0-.62-.38-1.02-.98-1.02h-17.3c-.59,0-.98,.4-.98,1.02V46.68c0,.62,.38,1.02,.98,1.02h17.3c.6,0,1.02-.42,1.02-1.02v-3.49c0-.6-.42-1.03-1.02-1.03h0Z"/><path class="d" d="M113.33,42.81c-4.3,0-7.3-3.13-7.3-7.6s3-7.6,7.3-7.6,7.1,3.07,7.1,7.65-2.85,7.55-7.1,7.55h0Zm12.02-20.09h-3.64c-.58,0-.97,.41-.97,1.02l-.07,2.45c-1.88-2.66-4.76-4.06-8.38-4.06-6.98,0-12.04,5.51-12.04,13.09s5.07,13.09,12.04,13.09c3.43,0,6.21-1.26,8.1-3.66v11.51c0,.61,.39,1.02,.98,1.02h3.99c.58,0,.98-.41,.98-1.02V23.75c0-.62-.38-1.02-.98-1.02h0Z"/><path class="d" d="M152.67,22.72h-3.94c-.58,0-.98,.41-.98,1.02v13.26c0,3.5-2.18,5.76-5.56,5.76s-5.06-2.04-5.06-5.76v-13.26c0-.61-.39-1.02-.97-1.02h-3.99c-.58,0-.98,.41-.98,1.02v14.26c0,6.26,3.59,10.3,9.15,10.3,3.92,0,6.18-1.92,7.45-3.8l.1,2.13c0,.71,.35,1.07,1.03,1.07h3.74c.6,0,1.03-.42,1.03-1.02V23.75c0-.6-.42-1.02-1.03-1.02h0Z"/><path class="d" d="M170.42,42.81c-4.3,0-7.3-3.13-7.3-7.6s3-7.6,7.3-7.6,7.1,3.07,7.1,7.65-2.85,7.55-7.1,7.55h0Zm12.02-20.09h-3.64c-.58,0-.97,.41-.97,1.02l-.07,2.45c-1.88-2.66-4.76-4.06-8.38-4.06-6.98,0-12.04,5.51-12.04,13.09s5.06,13.09,12.04,13.09c3.62,0,6.5-1.4,8.38-4.06l.07,2.44c0,.61,.39,1.02,.97,1.02h3.64c.59,0,.98-.4,.98-1.02V23.75c0-.62-.38-1.02-.98-1.02h0Z"/><path class="d" d="M200.28,22.72h-3.66v-5.46c0-.62-.38-1.02-.98-1.02h-4.04c-.59,0-.98,.4-.98,1.02v5.46h-2.86c-.59,0-.97,.4-.97,1.02v2.79c0,.61,.39,1.02,.97,1.02h2.86v14.18c0,4.23,2.37,6.56,6.66,6.56,.66,0,3.97-.08,3.97-1.57v-2.64c0-.31-.1-.56-.28-.73-.21-.19-.52-.27-.92-.24-.56,.05-1.14,.1-1.52,.1-1.31,0-1.92-.66-1.92-2.07v-13.58h3.66c.6,0,1.02-.42,1.02-1.02v-2.79c0-.6-.42-1.02-1.02-1.02h0Z"/><path class="d" d="M207.71,12.45c-1.92,0-3.42,1.48-3.42,3.37s1.5,3.42,3.42,3.42,3.37-1.5,3.37-3.42-1.48-3.37-3.37-3.37h0Z"/><path class="d" d="M209.71,22.72h-4.04c-.58,0-.97,.41-.97,1.02v22.94c0,.61,.39,1.02,.97,1.02h4.04c.58,0,.98-.41,.98-1.02V23.75c0-.61-.39-1.02-.98-1.02h0Z"/><g class="f"><path class="d" d="M227.26,42.76c-4.17,0-7.2-3.18-7.2-7.55s3.03-7.55,7.2-7.55,7.15,3.18,7.15,7.55-3.01,7.55-7.15,7.55h0Zm0-20.64c-7.38,0-12.94,5.63-12.94,13.09s5.56,13.09,12.94,13.09,12.89-5.63,12.89-13.09-5.54-13.09-12.89-13.09h0Z"/><path class="d" d="M59.84,29.86c0,16.49-13.37,29.86-29.86,29.86S.11,46.36,.11,29.86,13.48,0,29.98,0s29.86,13.37,29.86,29.86h0Z"/></g><path class="e" d="M32.89,47.31h-3.8l14.02-14.02c.38-.38,.38-1.02,0-1.42l-2.53-2.55c-.33-.33-.85-.39-1.24-.13l-8.66-8.66,1.83-1.83,14.28,14.28c.08,.08,.17,.13,.25,.18l-14.15,14.13h0Zm-20.36-14.54v-3.7l14.22,14.22c.18,.18,.45,.3,.7,.3,.27,0,.52-.1,.7-.3l2.53-2.53c.39-.39,.39-1.02,0-1.42-.02-.02-.05-.03-.07-.07l8.52-8.52,1.83,1.83-14.28,14.28-.05,.05-14.1-14.13h0ZM27.06,12.41h3.78l-14.22,14.22c-.39,.39-.39,1.02,0,1.42l2.55,2.53c.2,.2,.45,.3,.7,.3,.23,0,.49-.08,.67-.27l8.72,8.72-1.83,1.83-14.28-14.28c-.1-.1-.23-.18-.37-.23l14.27-14.23h0Zm-5.83,17.5l8.71-8.71,8.69,8.69-8.71,8.71-8.69-8.69h0Zm26.19-2.96v3.85l-14.22-14.22c-.38-.39-1.02-.39-1.42,0l-2.53,2.53c-.39,.39-.39,1-.02,1.41l-8.64,8.64-1.83-1.83,14.27-14.28c.08-.08,.15-.18,.2-.28l14.18,14.18h0Zm2.21-1.46l-15.29-15.29c-.23-.23-.57-.39-.92-.39h-6.9c-.33,0-.67,.13-.92,.39l-15.29,15.29c-.25,.25-.39,.57-.39,.92v6.9c0,.34,.13,.67,.39,.92l15.29,15.29c.23,.23,.57,.38,.92,.38h6.9c.34,0,.67-.13,.92-.38l15.29-15.29c.23-.23,.38-.57,.38-.92v-6.9c0-.35-.13-.67-.38-.92h0Z"/></svg>