<svg width="813" height="165" viewBox="0 0 813 165" fill="none" xmlns="http://www.w3.org/2000/svg">
<path d="M28.6693 162.214C26.4395 162.214 24.6847 161.579 23.4128 160.305C22.137 159.035 21.5049 157.287 21.5049 155.06V77.5281C21.5049 75.9406 20.7041 75.1448 19.1142 75.1448H7.16831C4.93459 75.1448 3.18373 74.5098 1.91181 73.2358C0.635962 71.9619 0 70.2136 0 67.9871V62.0249C0 59.7984 0.635962 58.0501 1.91181 56.7761C3.18373 55.506 4.93459 54.8671 7.16831 54.8671H19.1142C20.7041 54.8671 21.5049 54.0714 21.5049 52.4799V40.5555C21.5049 34.8285 22.3764 29.4621 24.1312 24.4485C25.8821 19.4428 28.4298 15.1466 31.7745 11.5716C35.1192 7.99271 39.1823 5.17037 43.9599 3.10066C48.7374 1.03486 54.0724 0 59.9649 0H64.503C66.7328 0 68.4836 0.638947 69.7595 1.909C71.0353 3.18297 71.6713 4.93126 71.6713 7.15777V13.12C71.6713 15.3504 71.0353 17.0987 69.7595 18.3687C68.4836 19.6427 66.7328 20.2777 64.503 20.2777H60.9227C54.8693 20.2777 50.3666 22.1044 47.4223 25.7656C44.4741 29.4229 43.002 34.3502 43.002 40.5555V52.4799C43.002 54.0714 43.7989 54.8671 45.3927 54.8671H64.503C66.7328 54.8671 68.4836 55.506 69.7595 56.7761C71.0353 58.0501 71.6713 59.7984 71.6713 62.0249V67.9871C71.6713 70.2136 71.0353 71.9619 69.7595 73.2358C68.4836 74.5098 66.7328 75.1448 64.503 75.1448H45.3927C43.7989 75.1448 43.002 75.9406 43.002 77.5281V155.06C43.002 157.287 42.366 159.035 41.0941 160.305C39.8143 161.579 38.0635 162.214 35.8376 162.214H28.6693Z" fill="black"/>
<path d="M210.53 162.214C208.296 162.214 206.545 161.579 205.274 160.305C203.998 159.035 203.362 157.287 203.362 155.06V94.2268C203.362 82.6199 206.706 73.1573 213.396 65.8388C220.085 58.5281 229.401 54.8669 241.347 54.8669H249.948C252.178 54.8669 253.928 55.5059 255.204 56.7759C256.476 58.0499 257.116 59.7982 257.116 62.0247V67.9869C257.116 70.2134 256.476 71.9617 255.204 73.2357C253.928 74.5096 252.178 75.1447 249.948 75.1447H242.78C236.726 75.1447 232.227 77.0145 229.283 80.7502C226.335 84.4858 224.863 89.3779 224.863 95.4185V155.06C224.863 157.287 224.223 159.035 222.951 160.305C221.675 161.579 219.924 162.214 217.694 162.214H210.53Z" fill="black"/>
<path d="M390.9 162.214C388.666 162.214 386.915 161.579 385.644 160.305C384.368 159.035 383.732 157.287 383.732 155.06V93.0352C383.732 90.4912 383.331 88.0256 382.538 85.6383C381.737 83.255 380.544 81.1069 378.954 79.1979C377.36 77.2928 375.331 75.7405 372.861 74.5489C370.392 73.3533 367.405 72.7575 363.903 72.7575C360.397 72.7575 357.41 73.3533 354.945 74.5489C352.471 75.7405 350.442 77.2928 348.852 79.1979C347.258 81.1069 346.104 83.255 345.39 85.6383C344.671 88.0256 344.314 90.4912 344.314 93.0352V155.06C344.314 157.287 343.674 159.035 342.402 160.305C341.126 161.579 339.375 162.214 337.146 162.214H329.977C327.747 162.214 325.997 161.579 324.725 160.305C323.445 159.035 322.813 157.287 322.813 155.06V93.0352C322.813 90.4912 322.412 88.0256 321.619 85.6383C320.819 83.255 319.625 81.1069 318.035 79.1979C316.441 77.2928 314.408 75.7405 311.943 74.5489C309.469 73.3533 306.568 72.7575 303.224 72.7575C299.879 72.7575 296.931 73.3533 294.383 74.5489C291.831 75.7405 289.763 77.2928 288.173 79.1979C286.579 81.1069 285.381 83.255 284.588 85.6383C283.788 88.0256 283.395 90.4912 283.395 93.0352V155.06C283.395 157.287 282.755 159.035 281.483 160.305C280.207 161.579 278.457 162.214 276.227 162.214H269.058C266.829 162.214 265.074 161.579 263.802 160.305C262.526 159.035 261.894 157.287 261.894 155.06V93.0352C261.894 87.3082 262.883 81.9418 264.878 76.9322C266.868 71.9225 269.655 67.6263 273.239 64.0513C276.823 60.4724 281.161 57.6501 286.261 55.5843C291.356 53.5185 297.009 52.4797 303.224 52.4797C309.273 52.4797 314.647 53.5969 319.346 55.8195C324.046 58.0499 327.987 60.5156 331.175 63.2164C332.764 64.6472 334.28 64.6472 335.713 63.2164C338.735 60.1981 342.602 57.6501 347.301 55.5843C351.996 53.5185 357.532 52.4797 363.903 52.4797C370.113 52.4797 375.766 53.5185 380.866 55.5843C385.961 57.6501 390.303 60.4724 393.884 64.0513C397.468 67.6263 400.255 71.9225 402.249 76.9322C404.236 81.9418 405.233 87.3082 405.233 93.0352V155.06C405.233 157.287 404.597 159.035 403.321 160.305C402.045 161.579 400.294 162.214 398.064 162.214H390.9Z" fill="black"/>
<path d="M488.846 77.528C488.846 75.9404 488.049 75.1447 486.459 75.1447H468.538C460.573 75.1447 454.402 77.6103 450.025 82.5376C445.64 87.4689 443.453 93.3566 443.453 100.193V123.81C443.453 129.855 445.247 134.782 448.831 138.596C452.412 142.414 457.389 144.323 463.761 144.323C468.063 144.323 471.765 143.571 474.87 142.058C477.976 140.549 480.563 138.518 482.635 135.974C484.704 133.43 486.255 130.608 487.295 127.503C488.328 124.406 488.846 121.184 488.846 117.844V77.528ZM496.014 162.214C493.78 162.214 492.03 161.5 490.758 160.07C489.478 158.635 488.846 157.047 488.846 155.295C488.846 154.343 488.489 153.747 487.77 153.508C487.052 153.269 486.377 153.547 485.741 154.343C483.507 157.365 480.205 159.831 475.824 161.74C471.443 163.645 466.152 164.601 459.941 164.601C454.363 164.601 449.267 163.562 444.651 161.5C440.026 159.435 436.049 156.491 432.705 152.673C429.36 148.855 426.73 144.288 424.822 138.957C422.91 133.63 421.952 127.785 421.952 121.423V100.193C421.952 93.9877 423.067 88.1078 425.301 82.5376C427.527 76.9714 430.675 72.1616 434.734 68.1084C438.797 64.0513 443.61 60.8291 449.189 58.4458C454.763 56.0586 460.895 54.8669 467.584 54.8669H503.179C505.408 54.8669 507.159 55.5059 508.435 56.7759C509.707 58.0499 510.347 59.7982 510.347 62.0247V155.06C510.347 157.287 509.707 159.035 508.435 160.305C507.159 161.579 505.408 162.214 503.179 162.214H496.014Z" fill="black"/>
<path d="M570.307 162.214C558.366 162.214 549.56 158.956 543.911 152.434C538.254 145.915 535.428 136.848 535.428 125.237V77.528C535.428 75.9404 534.631 75.1447 533.041 75.1447H525.873C523.643 75.1447 521.892 74.5097 520.616 73.2357C519.34 71.9617 518.708 70.2134 518.708 67.9869V62.0247C518.708 59.7982 519.34 58.0499 520.616 56.776C521.892 55.5059 523.643 54.867 525.873 54.867H533.041C534.631 54.867 535.428 54.0712 535.428 52.4797V35.7809C535.428 33.5583 536.064 31.81 537.34 30.5321C538.612 29.266 540.362 28.627 542.596 28.627H549.764C551.994 28.627 553.745 29.266 555.021 30.5321C556.293 31.81 556.929 33.5583 556.929 35.7809V52.4797C556.929 54.0712 557.726 54.867 559.319 54.867H577.236C579.466 54.867 581.217 55.5059 582.493 56.776C583.769 58.0499 584.405 59.7982 584.405 62.0247V67.9869C584.405 70.2134 583.769 71.9617 582.493 73.2357C581.217 74.5097 579.466 75.1447 577.236 75.1447H559.319C557.726 75.1447 556.929 75.9404 556.929 77.528V124.046C556.929 129.616 558.004 133.987 560.156 137.166C562.307 140.349 566.405 141.936 572.459 141.936H577.236C579.466 141.936 581.217 142.575 582.493 143.845C583.769 145.119 584.405 146.867 584.405 149.094V155.06C584.405 157.287 583.769 159.035 582.493 160.305C581.217 161.579 579.466 162.214 577.236 162.214H570.307Z" fill="black"/>
<path d="M603.511 162.214C601.281 162.214 599.531 161.579 598.259 160.305C596.979 159.035 596.347 157.287 596.347 155.06V62.0247C596.347 59.7982 596.979 58.0499 598.259 56.776C599.531 55.5059 601.281 54.867 603.511 54.867H610.68C612.909 54.867 614.66 55.5059 615.936 56.776C617.208 58.0499 617.848 59.7982 617.848 62.0247V155.06C617.848 157.287 617.208 159.035 615.936 160.305C614.66 161.579 612.909 162.214 610.68 162.214H603.511ZM603.511 38.1681C601.281 38.1681 599.531 37.5331 598.259 36.2591C596.979 34.9891 596.347 33.2408 596.347 31.0103V19.086C596.347 16.8594 596.979 15.1112 598.259 13.8372C599.531 12.5632 601.281 11.9282 603.511 11.9282H610.68C612.909 11.9282 614.66 12.5632 615.936 13.8372C617.208 15.1112 617.848 16.8594 617.848 19.086V31.0103C617.848 33.2408 617.208 34.9891 615.936 36.2591C614.66 37.5331 612.909 38.1681 610.68 38.1681H603.511Z" fill="black"/>
<path d="M669.211 162.214C666.977 162.214 665.183 161.822 663.833 161.022C662.478 160.23 661.403 158.482 660.61 155.773L627.881 61.5465C627.081 59.4807 627.163 57.85 628.117 56.6544C629.075 55.4628 630.665 54.8669 632.895 54.8669H641.735C646.034 54.8669 648.743 56.7759 649.857 60.5939L672.552 131.443C673.031 133.195 673.828 134.065 674.943 134.065C676.054 134.065 676.854 133.195 677.333 131.443L700.028 60.5939C701.139 56.7759 703.851 54.8669 708.15 54.8669H716.991C719.216 54.8669 720.81 55.4628 721.768 56.6544C722.722 57.85 722.801 59.4807 722.008 61.5465L689.275 155.773C688.478 158.482 687.403 160.23 686.052 161.022C684.698 161.822 682.904 162.214 680.674 162.214H669.211Z" fill="black"/>
<path d="M790.57 94.7051C790.57 88.6606 788.897 83.4941 785.553 79.1979C782.208 74.9056 776.712 72.7575 769.069 72.7575C761.579 72.7575 756.322 74.9056 753.299 79.1979C750.273 83.4941 748.761 88.6606 748.761 94.7051V95.8967C748.761 97.4882 749.558 98.284 751.152 98.284H788.179C789.769 98.284 790.57 97.4882 790.57 95.8967V94.7051ZM807.293 138.836C808.726 140.266 809.401 141.858 809.323 143.606C809.24 145.358 808.565 147.028 807.293 148.616C804.102 152.594 799.407 156.252 793.196 159.591C786.986 162.927 779.582 164.597 770.981 164.597C764.287 164.597 758.277 163.527 752.942 161.379C747.603 159.235 743.026 156.252 739.206 152.434C735.382 148.616 732.434 144.167 730.365 139.075C728.293 133.987 727.26 128.577 727.26 122.854V94.7051C727.26 88.9781 728.175 83.5333 730.008 78.3629C731.834 73.1965 734.546 68.7043 738.13 64.8863C741.715 61.0683 746.092 58.0499 751.27 55.8195C756.444 53.5969 762.379 52.4797 769.069 52.4797C775.758 52.4797 781.729 53.5969 786.986 55.8195C792.242 58.0499 796.741 61.0683 800.482 64.8863C804.223 68.7043 807.089 73.1965 809.083 78.3629C811.074 83.5333 812.071 88.9781 812.071 94.7051V109.017C812.071 111.247 811.431 112.995 810.159 114.265C808.883 115.539 807.132 116.174 804.902 116.174H751.152C749.558 116.174 748.761 116.974 748.761 118.562V122.854C748.761 128.899 750.551 133.987 754.135 138.122C757.72 142.258 763.333 144.323 770.981 144.323C777.03 144.323 781.729 143.249 785.074 141.101C788.418 138.957 790.962 136.927 792.717 135.021C794.468 133.273 796.219 132.438 797.974 132.513C799.724 132.595 801.318 133.352 802.755 134.782L807.293 138.836Z" fill="black"/>
<path d="M177.863 115.816C171.857 116.098 166.707 111.511 166.317 105.49C165.76 96.8994 161.946 88.9737 155.57 83.1734C151.059 79.0641 150.731 72.0778 154.841 67.5668C158.952 63.0541 165.947 62.7266 170.459 66.8377C181.095 76.5112 187.459 89.7339 188.384 104.067C188.779 110.157 184.156 115.409 178.064 115.803C177.997 115.807 177.93 115.81 177.863 115.816Z" fill="#FFC400"/>
<path d="M177.861 115.816C171.856 116.098 166.705 111.512 166.316 105.491C165.759 96.8996 161.944 88.9739 155.568 83.1736C151.057 79.0643 150.73 72.078 154.839 67.567C158.95 63.0543 165.945 62.7268 170.458 66.8379C181.093 76.5114 187.457 89.7341 188.383 104.067C188.778 110.157 184.155 115.409 178.063 115.804C177.996 115.807 177.928 115.811 177.861 115.816Z" fill="#FFC400"/>
<path d="M163.53 86.0399C160.705 86.1709 157.828 85.2246 155.57 83.1733C149.031 77.2248 140.568 74.1772 131.736 74.5909C122.905 74.9994 114.759 78.8278 108.805 85.359C104.696 89.8683 97.7008 90.1975 93.188 86.0881C88.6719 81.9805 88.3444 74.9925 92.4555 70.4833C102.386 59.5859 115.969 53.2064 130.703 52.5169C145.434 51.8292 159.555 56.9159 170.459 66.8376C174.974 70.9452 175.301 77.9332 171.192 82.4425C169.134 84.6971 166.36 85.9072 163.53 86.0399Z" fill="#64C852"/>
<path d="M163.532 86.0398C160.707 86.1708 157.83 85.2245 155.572 83.1733C149.034 77.2247 140.57 74.1772 131.738 74.5909C122.907 74.9994 114.761 78.8278 108.807 85.359C104.698 89.8682 97.703 90.1974 93.1903 86.0881C88.6742 81.9805 88.3466 74.9925 92.4577 70.4832C102.388 59.5859 115.971 53.2064 130.705 52.5169C145.436 51.8291 159.557 56.9158 170.461 66.8376C174.976 70.9452 175.303 77.9332 171.194 82.4424C169.136 84.697 166.362 85.9071 163.532 86.0398Z" fill="#65D351"/>
<path d="M104.065 151.286C101.24 151.421 98.3629 150.471 96.1048 148.42C73.5947 127.938 71.9555 92.9743 92.4557 70.4832C96.5685 65.9722 103.56 65.6447 108.076 69.7506C112.592 73.8582 112.92 80.8462 108.805 85.3589C96.5185 98.8453 97.4993 119.804 110.993 132.084C115.509 136.191 115.836 143.179 111.725 147.687C109.669 149.943 106.894 151.153 104.065 151.286Z" fill="#8088B7"/>
<path d="M104.065 151.287C101.24 151.421 98.3629 150.471 96.1048 148.42C73.5947 127.939 71.9555 92.975 92.4557 70.4839C96.5685 65.9729 103.56 65.6454 108.076 69.7513C112.592 73.8589 112.92 80.8469 108.805 85.3596C96.5185 98.846 97.4993 119.805 110.993 132.085C115.509 136.192 115.836 143.18 111.725 147.688C109.669 149.944 106.894 151.154 104.065 151.287Z" fill="#8088B7"/>
<path d="M135.864 162.714C121.737 163.375 107.361 158.662 96.1065 148.421C91.5904 144.314 91.2628 137.326 95.3774 132.813C99.4867 128.305 106.482 127.974 110.994 132.086C124.491 144.362 145.472 143.381 157.759 129.9C161.873 125.387 168.865 125.061 173.381 129.167C177.897 133.278 178.223 140.263 174.11 144.776C163.859 156.019 149.988 162.052 135.864 162.714Z" fill="#FF7C6E"/>
<path d="M166.094 149.006C163.252 149.135 160.358 148.185 158.086 146.122C153.542 141.985 153.213 134.954 157.348 130.419C163.49 123.681 166.546 114.957 165.96 105.863C165.563 99.7383 170.214 94.4499 176.344 94.0535C182.492 93.6605 188.011 98.3042 188.408 104.432C189.387 119.601 184.042 134.146 173.798 145.384C171.733 147.654 168.937 148.87 166.094 149.006Z" fill="#FFC400"/>
<path d="M166.094 149.006C163.252 149.136 160.358 148.186 158.086 146.123C153.542 141.986 153.213 134.955 157.348 130.419C163.49 123.681 166.546 114.958 165.96 105.863C165.563 99.7389 170.214 94.4505 176.344 94.0541C182.492 93.6611 188.011 98.3048 188.408 104.433C189.387 119.601 184.042 134.146 173.798 145.385C171.733 147.655 168.937 148.87 166.094 149.006Z" fill="#FFC400"/>
</svg>
