<?xml version="1.0" encoding="UTF-8"?> <svg xmlns="http://www.w3.org/2000/svg" xmlns:xlink="http://www.w3.org/1999/xlink" width="48px" height="38px" viewBox="0 0 48 38"> <!-- Generator: Sketch 51.2 (57519) - http://www.bohemiancoding.com/sketch --> <title>Parlay primary logo</title> <desc>Created with Sketch.</desc> <defs></defs> <g id="Refresh-Summer-2018" stroke="none" stroke-width="1" fill="none" fill-rule="evenodd"> <g id="Parlay-primary-logo" fill-rule="nonzero"> <g id="XMLID_10_" transform="translate(0.457143, 0.000000)"> <g id="XMLID_9_"> <path d="M47.3617415,5.31341991 L47.3617415,11.6538033 C47.3617415,12.3012369 46.841034,12.9263451 45.8901769,13.5068027 C45.4826667,13.752381 44.9845986,13.9979592 44.4186122,14.2212121 C43.9658231,14.3998145 43.4677551,14.5784168 42.9470476,14.7570192 C42.4942585,14.9132962 41.9961905,15.047248 41.475483,15.1811998 C41.0000544,15.2928262 40.5246259,15.426778 40.0039184,15.5384045 C39.5284898,15.6277056 39.0304218,15.7393321 38.5323537,15.8286333 C38.0569252,15.9179344 37.5588571,16.0072356 37.0607891,16.0742115 C36.5853605,16.1411874 36.0872925,16.2081633 35.5892245,16.2751391 C35.1137959,16.342115 34.6157279,16.4090909 34.1176599,16.4537415 C33.6422313,16.4983921 33.1441633,16.565368 32.6460952,16.6100186 C32.1706667,16.6546691 31.6725986,16.6993197 31.1745306,16.7439703 C30.699102,16.7662956 30.201034,16.8109462 29.702966,16.8332715 C29.2275374,16.8555968 28.7294694,16.8779221 28.2314014,16.9002474 C27.7559728,16.9225727 27.2579048,16.944898 26.7598367,16.944898 C26.2844082,16.944898 25.7863401,16.9672233 25.2882721,16.9672233 C24.8128435,16.9895485 24.3147755,16.9895485 23.8167075,16.9895485 L23.8167075,10.6491651 C24.3147755,10.6491651 24.7902041,10.6491651 25.2882721,10.6491651 C25.7637007,10.6268398 26.2617687,10.6268398 26.7598367,10.6268398 C27.2579048,10.6045145 27.7333333,10.5821892 28.2314014,10.5598639 C28.7294694,10.5598639 29.204898,10.5152134 29.702966,10.4928881 C30.2236735,10.4705628 30.699102,10.4259122 31.1745306,10.4035869 C31.6725986,10.3812616 32.1706667,10.336611 32.6460952,10.2919604 C33.1441633,10.2473098 33.6195918,10.2026592 34.1176599,10.1356834 C34.6157279,10.0910328 35.1137959,10.0240569 35.5892245,9.97940631 C36.0872925,9.91243043 36.5853605,9.84545455 37.0607891,9.75615337 C37.5814966,9.68917749 38.0569252,9.59987631 38.5323537,9.51057514 C39.0530612,9.42127396 39.5511293,9.33197279 40.0039184,9.22034632 C40.5246259,9.10871985 41.0000544,8.99709338 41.475483,8.86314162 C41.9282721,8.77384045 42.3357823,8.63988868 42.7432925,8.52826221 C42.8112109,8.50593692 42.9017687,8.48361163 42.9696871,8.46128633 C43.513034,8.28268398 44.011102,8.10408163 44.4412517,7.92547928 C45.0072381,7.70222635 45.5053061,7.45664811 45.9128163,7.21106988 C46.841034,6.58596166 47.3617415,5.96085343 47.3617415,5.31341991 Z" id="Shape" fill="#72CCD7"></path> <path d="M47.3617415,5.31341991 C47.3617415,5.96085343 46.841034,6.58596166 45.8901769,7.16641929 C45.4826667,7.41199753 44.9845986,7.65757576 44.4186122,7.8808287 C43.9658231,8.05943105 43.4677551,8.2380334 42.9470476,8.41663575 L42.9470476,2.23252938 C43.4903946,2.38880643 43.9884626,2.56740878 44.4186122,2.76833643 C44.9845986,2.99158936 45.4826667,3.23716759 45.8901769,3.48274583 C46.841034,4.04087817 47.3617415,4.66598639 47.3617415,5.31341991 Z" id="Shape" fill="#283248"></path> <path d="M42.9470476,2.23252938 L42.9470476,8.41663575 C42.8791293,8.43896104 42.8112109,8.46128633 42.7206531,8.48361163 C42.3131429,8.37198516 41.9056327,8.2380334 41.4528435,8.14873222 C40.977415,8.01478046 40.5019864,7.90315399 39.9812789,7.79152752 C39.5058503,7.70222635 39.0077823,7.59059988 38.5097143,7.5012987 C38.0342857,7.41199753 37.5362177,7.32269635 37.0381497,7.25572047 L37.0381497,0.915337044 C37.5588571,0.982312925 38.0569252,1.0716141 38.5097143,1.16091528 C39.0304218,1.25021645 39.5284898,1.33951763 39.9812789,1.45114409 C40.5019864,1.56277056 40.977415,1.67439703 41.4528435,1.7860235 C41.9961905,1.94230056 42.4942585,2.07625232 42.9470476,2.23252938 Z" id="Shape" fill="#EB2D7C"></path> <path d="M35.5892245,0.7144094 C36.0872925,0.781385281 36.5853605,0.848361163 37.0607891,0.915337044 L37.0607891,7.25572047 C36.5853605,7.18874459 36.0872925,7.12176871 35.5892245,7.03246753 C35.1137959,6.96549165 34.6157279,6.92084106 34.1176599,6.85386518 C33.6422313,6.80921459 33.1441633,6.74223871 32.6460952,6.69758813 C32.1706667,6.65293754 31.6725986,6.60828695 31.1745306,6.58596166 C30.699102,6.56363636 30.201034,6.51898578 29.702966,6.49666048 C29.2275374,6.47433519 28.7294694,6.45200989 28.2314014,6.4296846 C27.7559728,6.40735931 27.2579048,6.38503401 26.7598367,6.36270872 C26.2844082,6.36270872 25.7863401,6.36270872 25.2882721,6.34038343 C24.8128435,6.34038343 24.3147755,6.34038343 23.8167075,6.34038343 L23.8167075,0 C24.3147755,0 24.7902041,0 25.2882721,0.0223252938 C25.7863401,0.0223252938 26.2617687,0.0446505875 26.7598367,0.0446505875 C27.2579048,0.0446505875 27.7333333,0.0669758813 28.2314014,0.089301175 C28.7294694,0.089301175 29.204898,0.133951763 29.702966,0.156277056 C30.201034,0.200927644 30.699102,0.223252938 31.1745306,0.245578231 C31.6725986,0.290228819 32.1706667,0.312554113 32.6460952,0.3572047 C33.1441633,0.401855288 33.6422313,0.446505875 34.1176599,0.513481756 C34.6157279,0.580457638 35.0911565,0.647433519 35.5892245,0.7144094 Z" id="Shape" fill="#283248"></path> <path d="M23.8167075,0 L23.8167075,6.34038343 L23.7714286,6.34038343 C23.296,6.34038343 22.8205714,6.34038343 22.3225034,6.34038343 C21.8244354,6.34038343 21.3263673,6.36270872 20.8509388,6.36270872 L20.8509388,0.0446505875 C21.3263673,0.0223252938 21.8244354,0.0223252938 22.3225034,0.0223252938 C22.797932,0 23.2733605,0 23.7714286,0 L23.8167075,0 Z" id="Shape" fill="#72CCD7"></path> <path d="M23.8167075,10.6491651 L23.8167075,16.9672233 L23.7714286,16.9672233 C23.296,16.9672233 22.797932,16.9672233 22.3225034,16.944898 C21.8244354,16.944898 21.3263673,16.9225727 20.8509388,16.9225727 C20.3528707,16.9002474 19.8548027,16.9002474 19.3567347,16.8779221 L19.3567347,10.5375387 C19.8321633,10.5598639 20.3302313,10.5821892 20.8509388,10.6045145 C21.3263673,10.6045145 21.8244354,10.6268398 22.3225034,10.6268398 C22.797932,10.6268398 23.2733605,10.6268398 23.7714286,10.6268398 L23.8167075,10.6268398 L23.8167075,10.6491651 Z" id="Shape" fill="#283248"></path> <path d="M20.8509388,0.0446505875 L20.8509388,6.36270872 C20.3528707,6.38503401 19.8548027,6.38503401 19.3567347,6.4296846 C18.8586667,6.45200989 18.3605986,6.47433519 17.8851701,6.49666048 C17.387102,6.51898578 16.889034,6.56363636 16.4136054,6.58596166 C15.9155374,6.63061224 15.4174694,6.65293754 14.9420408,6.69758813 L14.9420408,0.379529994 C15.4174694,0.334879406 15.9155374,0.290228819 16.4136054,0.267903525 C16.889034,0.245578231 17.387102,0.200927644 17.8851701,0.17860235 C18.3605986,0.156277056 18.8586667,0.133951763 19.3567347,0.111626469 C19.8548027,0.0669758813 20.3528707,0.0446505875 20.8509388,0.0446505875 Z" id="Shape" fill="#DDE4F0"></path> <path d="M17.8851701,10.4705628 C18.3605986,10.4928881 18.8586667,10.5375387 19.3567347,10.5375387 L19.3567347,16.8779221 C18.8586667,16.8555968 18.3605986,16.8332715 17.8851701,16.8109462 C17.387102,16.7886209 16.889034,16.7439703 16.4136054,16.721645 C15.9155374,16.6769944 15.4174694,16.6546691 14.9420408,16.5876933 C14.4439728,16.5430427 13.9459048,16.4983921 13.4478367,16.4314162 C12.9497687,16.3867656 12.4517007,16.3197897 11.9762721,16.2751391 C11.4555646,16.2081633 10.9801361,16.1411874 10.5047075,16.0742115 L10.5047075,9.73382808 C10.9801361,9.80080396 11.4782041,9.86777984 11.9762721,9.93475572 C12.4517007,9.97940631 12.9497687,10.0463822 13.4478367,10.0910328 C13.9232653,10.1580087 14.4213333,10.2026592 14.9420408,10.2473098 C15.4174694,10.2919604 15.9155374,10.336611 16.4136054,10.3589363 C16.889034,10.4259122 17.387102,10.4482375 17.8851701,10.4705628 Z" id="Shape" fill="#DDE4F0"></path> <path d="M14.9194014,0.379529994 L14.9194014,6.71991342 C14.3986939,6.76456401 13.9232653,6.83153989 13.4251973,6.87619048 C12.9271293,6.94316636 12.4517007,6.98781694 11.9536327,7.05479283 C11.4329252,7.12176871 10.9574966,7.18874459 10.482068,7.25572047 C9.96136054,7.34502165 9.46329252,7.41199753 9.0105034,7.523624 C8.48979592,7.61292517 7.99172789,7.70222635 7.53893878,7.81385281 C7.01823129,7.92547928 6.54280272,8.03710575 6.06737415,8.17105751 L6.06737415,1.80834879 C6.54280272,1.69672233 7.01823129,1.58509586 7.53893878,1.47346939 C8.01436735,1.36184292 8.51243537,1.27254174 9.0105034,1.18324057 C9.48593197,1.09393939 9.984,1.00463822 10.482068,0.937662338 C10.9574966,0.870686456 11.4555646,0.803710575 11.9536327,0.7144094 C12.4290612,0.669758813 12.9271293,0.602782931 13.4251973,0.558132344 C13.9232653,0.468831169 14.4213333,0.424180581 14.9194014,0.379529994 Z" id="Shape" fill="#283248"></path> <path d="M3.1242449,7.90315399 C3.57703401,8.08175634 4.05246259,8.26035869 4.59580952,8.43896104 C4.66372789,8.46128633 4.73164626,8.48361163 4.82220408,8.50593692 C5.20707483,8.61756339 5.61458503,8.72918986 6.06737415,8.84081633 C6.54280272,8.97476809 7.04087075,9.08639456 7.53893878,9.19802103 C8.01436735,9.2873222 8.51243537,9.39894867 9.0105034,9.48824985 C9.48593197,9.57755102 9.984,9.6668522 10.482068,9.73382808 L10.482068,16.0742115 C9.96136054,16.0072356 9.46329252,15.9179344 9.0105034,15.8286333 C8.48979592,15.7393321 7.99172789,15.6500309 7.53893878,15.5384045 C7.01823129,15.426778 6.54280272,15.2928262 6.06737415,15.1811998 C5.54666667,15.0695733 5.0712381,14.9132962 4.59580952,14.7793445 C4.05246259,14.6230674 3.55439456,14.4444651 3.1242449,14.2435374 C2.53561905,14.0202845 2.03755102,13.7747062 1.65268027,13.529128 C0.701823129,12.9486704 0.181115646,12.3235622 0.181115646,11.6761286 L0.181115646,5.31341991 C0.181115646,5.96085343 0.701823129,6.58596166 1.65268027,7.16641929 C2.08282993,7.43432282 2.5582585,7.65757576 3.1242449,7.90315399 Z" id="Shape" fill="#283248"></path> <path d="M6.06737415,1.80834879 L6.06737415,8.17105751 C5.61458503,8.28268398 5.20707483,8.39431045 4.82220408,8.50593692 C4.75428571,8.48361163 4.68636735,8.46128633 4.59580952,8.43896104 C4.05246259,8.26035869 3.55439456,8.08175634 3.1242449,7.90315399 C2.5582585,7.67990105 2.06019048,7.43432282 1.65268027,7.18874459 C0.701823129,6.60828695 0.181115646,5.98317873 0.181115646,5.33574521 C0.181115646,4.68831169 0.701823129,4.06320346 1.65268027,3.48274583 C2.06019048,3.23716759 2.5582585,2.99158936 3.1242449,2.76833643 C3.57703401,2.58973408 4.05246259,2.41113173 4.59580952,2.23252938 C5.0712381,2.07625232 5.54666667,1.94230056 6.06737415,1.80834879 Z" id="Shape" fill="#72CCD7"></path> </g> </g> <g id="XMLID_4_" transform="translate(0.000000, 22.619048)" fill="#283248"> <path d="M47.9476542,3.81071058 L45.1333623,11.7929091 C44.2102745,14.4310933 42.7468427,15.4683281 40.4278662,15.3555852 L40.4278662,13.0556297 C41.5986116,13.0556297 42.1389557,12.6948524 42.499185,11.6801661 L39.2120921,3.81071058 L41.9138123,3.81071058 L43.7599878,8.86159324 L45.3134769,3.81071058 L47.9476542,3.81071058 Z" id="Shape"></path> <path d="M38.334033,3.81071058 L38.334033,12.0409435 L35.8574561,12.0409435 L35.8574561,11.2742916 C35.2945977,11.8831034 34.506596,12.2889779 33.4033936,12.2889779 C31.219503,12.2889779 29.4633849,10.3723483 29.4633849,7.93710132 C29.4633849,5.47930574 31.2420174,3.58522474 33.4033936,3.58522474 C34.506596,3.58522474 35.2945977,3.96855066 35.8574561,4.57736241 L35.8574561,3.81071058 L38.334033,3.81071058 Z M35.8574561,7.91455274 C35.8574561,6.67438066 35.0244257,5.90772882 33.8761946,5.90772882 C32.7504778,5.90772882 31.9174474,6.67438066 31.9174474,7.91455274 C31.9174474,9.15472482 32.7504778,9.92137665 33.8761946,9.92137665 C35.0244257,9.94392523 35.8574561,9.15472482 35.8574561,7.91455274 Z" id="Shape"></path> <rect id="Rectangle-path" x="25.5909192" y="0" width="2.45406255" height="12.0409435"></rect> <path d="M24.4426881,3.63032191 L24.4426881,6.42634624 C23.429543,6.26850616 21.9886256,6.67438066 21.9886256,8.29787865 L21.9886256,12.0183949 L19.5120487,12.0183949 L19.5120487,3.78816199 L21.9886256,3.78816199 L21.9886256,5.25381991 C22.3038263,4.14893933 23.4070287,3.63032191 24.4426881,3.63032191 Z" id="Shape"></path> <path d="M17.6658732,3.81071058 L17.6658732,12.0409435 L15.2118106,12.0409435 L15.2118106,11.2742916 C14.6714666,11.8831034 13.8609505,12.2889779 12.7352338,12.2889779 C10.5963719,12.2889779 8.79522508,10.3723483 8.79522508,7.93710132 C8.79522508,5.47930574 10.5963719,3.58522474 12.7352338,3.58522474 C13.8384362,3.58522474 14.6714666,3.96855066 15.2118106,4.57736241 L15.2118106,3.81071058 L17.6658732,3.81071058 Z M15.2118106,7.91455274 C15.2118106,6.67438066 14.4012946,5.90772882 13.2530635,5.90772882 C12.1048324,5.90772882 11.2943163,6.67438066 11.2943163,7.91455274 C11.2943163,9.15472482 12.1048324,9.92137665 13.2530635,9.92137665 C14.4012946,9.92137665 15.2118106,9.15472482 15.2118106,7.91455274 Z" id="Shape"></path> <path d="M4.44995837,0.496068833 C6.72390624,0.496068833 8.48002439,2.27740691 8.48002439,4.46461949 C8.48002439,6.65183207 6.72390624,8.43317015 4.44995837,8.43317015 L2.71635455,8.43317015 L2.71635455,12.0409435 L0.0596629885,12.0409435 L0.0596629885,0.496068833 L4.44995837,0.496068833 Z M5.84584716,4.46461949 C5.84584716,3.63032191 5.26047444,2.976413 4.44995837,2.976413 L2.71635455,2.976413 L2.71635455,5.97537457 L4.44995837,5.97537457 C5.26047444,5.95282599 5.84584716,5.29891707 5.84584716,4.46461949 Z" id="Shape"></path> </g> </g> </g> </svg> 