<svg xmlns="http://www.w3.org/2000/svg" width="596" height="83" viewBox="0 0 596 83">
  <g fill="#FFF">
    <path d="M448.706818,65.3731966 C444.053409,65.3731966 440.385795,61.6785584 440.385795,57.08244 C440.385795,52.3947426 444.053409,48.6113874 448.706818,48.6113874 C453.269318,48.6113874 457.027841,52.3947426 457.027841,57.08244 C457.027841,61.6785584 453.269318,65.3731966 448.706818,65.3731966" transform="matrix(1 0 0 -1 0 113.985)"/>
    <path d="M485.575273,65.3731966 C471.436068,65.3731966 462.490045,55.7316505 462.490045,41.1276703 C462.490045,25.9856637 470.901977,17.1540189 484.947432,17.1540189 C497.384932,17.1540189 507.94175,24.8151703 507.94175,41.9404334 C507.94175,57.7120453 498.634932,65.3731966 485.575273,65.3731966 M485.393455,22.7403347 C478.862205,22.7403347 477.072432,28.3295124 477.072432,40.9473742 C477.072432,55.1879005 479.578114,59.6037229 485.217318,59.6037229 C490.583795,59.6037229 493.447432,55.3681966 493.447432,42.2981637 C493.447432,28.4182295 490.762773,22.7403347 485.393455,22.7403347" transform="matrix(1 0 0 -1 0 82.527)"/>
    <path d="M542.325568,64.2021308 C537.496023,64.2021308 531.76875,60.4187755 529.530114,52.6660453 C529.353977,58.5270979 527.652273,62.5823282 526.760227,64.2021308 L525.416477,64.2021308 L511.013068,60.5990716 L511.013068,56.6354203 C515.484659,56.4522624 516.379545,55.5507821 516.379545,48.9714071 L516.379545,27.5219005 C516.379545,22.3820321 515.396591,21.3031176 510.919318,21.2115387 L510.919318,17.1563084 L536.780114,17.1563084 L536.780114,21.2115387 C530.694886,21.3031176 529.711932,22.3820321 529.711932,27.5219005 L529.711932,41.5821308 C529.711932,48.610815 531.501705,50.7743676 538.3,50.7743676 C540.447727,50.7743676 541.609659,50.5024926 543.223295,50.0531834 L545.726136,63.6641045 C545.010227,63.9359795 543.757386,64.2021308 542.325568,64.2021308" transform="matrix(1 0 0 -1 0 81.358)"/>
    <path d="M591.004545,82.0497229 C588.589773,79.7974532 585.101136,77.7226176 581.967614,77.7226176 C579.819886,77.7226176 579.015909,77.9944926 576.868182,78.5353808 C572.575568,79.7087361 570.515909,80.0664663 567.564205,80.0664663 C555.930682,80.0664663 548.325568,74.5688676 548.325568,64.9244597 C548.325568,57.9844926 552.709091,53.2080782 560.047159,51.6769926 C553.964773,50.0514663 550.20625,46.6287032 550.20625,42.1213018 C550.20625,38.1547887 552.086932,34.8207426 556.828409,34.2827163 C558.70625,34.0108413 563.714773,33.7389663 566.936364,33.6502492 C576.240341,33.2896571 578.927841,32.1191637 578.927841,27.6117624 C578.927841,23.19594 576.152273,20.6717953 568.45625,20.6717953 C561.836932,20.6717953 559.243182,22.4747558 559.243182,26.8018611 C559.243182,28.9625518 559.868182,30.3133413 560.317045,31.1261045 L551.459091,31.0345255 C548.953409,30.0443282 546.805682,27.7920584 546.805682,24.7270255 C546.805682,18.4195255 555.305682,15.1713347 568.010227,15.1713347 C581.251705,15.1713347 590.916477,19.9506111 590.916477,31.3979795 C590.916477,41.1282426 584.919318,44.1961374 573.467614,44.7341637 L564.879545,45.0976176 C563.089773,45.1863347 562.373864,45.9962361 562.373864,47.1695913 C562.373864,48.6119597 563.626705,49.6021571 565.504545,50.5036374 L566.132386,50.5036374 C582.865341,50.5036374 586.532955,57.8957755 586.532955,64.1145584 C586.532955,67.9007755 584.743182,70.5136374 582.413636,72.13344 C584.473295,71.2348216 586.263068,70.8742295 588.322727,70.8742295 C591.004545,70.8742295 593.33125,71.8644268 595.657955,73.4870913 L591.004545,82.0497229 M567.476136,55.82094 C563.714773,55.82094 561.569886,58.5253808 561.569886,65.1047558 C561.569886,71.9560058 563.626705,74.4801505 567.476136,74.4801505 C571.677841,74.4801505 573.558523,72.0447229 573.558523,64.8328808 C573.558523,58.4338018 571.589773,55.82094 567.476136,55.82094" transform="matrix(1 0 0 -1 0 97.221)"/>
    <path d="M26.2735682,57.9037887 L20.7252727,57.9037887 L20.7252727,34.2878676 L26.0945909,34.2878676 C32.8048182,34.2878676 36.0264091,36.7232953 36.0264091,46.1874071 C36.0264091,54.8416176 33.0747045,57.9037887 26.2735682,57.9037887 M57.0519773,5.80967684 L57.0519773,1.66286763 L38.9781136,1.66286763 C35.6684545,9.504315 33.7906136,13.9201374 30.2991364,20.3192163 C27.1684545,25.9999729 25.2877727,27.5310584 20.7252727,27.9803676 L20.7252727,12.2058939 C20.7252727,7.16046632 22.248,5.80967684 26.8105,5.80967684 L26.8105,1.66286763 L0.594590909,1.66286763 L0.594590909,5.80967684 C5.33606818,5.80967684 6.67981818,7.06888737 6.67981818,12.2058939 L6.67981818,53.4879663 C6.67981818,58.6249729 5.33606818,59.8870453 0.594590909,59.9786242 L0.594590909,64.3028676 L28.9582273,64.3028676 C41.7508409,64.3028676 50.96675,59.3461571 50.96675,46.2789861 C50.96675,35.1893479 43.2735682,30.5045124 33.6116364,29.8720453 L33.6116364,29.5114532 C37.9951591,28.3409597 41.4837955,25.816815 43.4525455,23.1152361 C45.77925,19.7783282 47.3900455,16.7132953 50.2508409,11.0354005 C51.8616364,7.60977553 52.7565227,5.98711105 57.0519773,5.80967684" transform="matrix(1 0 0 -1 0 65.966)"/>
    <path d="M69.89175,45.4659253 L83.7610682,45.4659253 C83.7610682,56.3752674 81.9712955,59.7980305 77.2298182,59.7980305 C72.7553864,59.7980305 70.5195909,56.4639845 69.89175,45.4659253 M93.9599318,28.1603661 L96.1957273,24.4657279 C91.3661818,19.6893134 85.4599318,17.2567476 77.4968636,17.2567476 C63.6275455,17.2567476 55.4883409,26.0883924 55.4883409,41.410695 C55.4883409,56.6414187 64.2553864,65.3843463 77.2298182,65.3843463 C91.1872045,65.3843463 97.0025455,57.0020108 97.0025455,43.2136555 L97.0025455,39.3358595 L69.8036818,39.3358595 C70.0707273,29.1534253 73.5593636,25.0066161 82.0593636,25.0066161 C85.9087955,25.0066161 90.2014091,26.0883924 93.9599318,28.1603661" transform="matrix(1 0 0 -1 0 82.641)"/>
    <path d="M121.375,40.4239318 C115.289773,40.4239318 112.071023,37.81107 112.071023,32.3106095 C112.071023,27.1736029 114.036932,25.5538003 117.4375,25.5538003 C119.764205,25.5538003 122.627841,26.9017279 124.238636,28.9765634 L124.508523,40.4239318 L121.375,40.4239318 Z M143.386364,24.0198529 L143.386364,20.1420568 C141.505682,18.9715634 138.196023,17.9785042 134.258523,17.9785042 C128.713068,17.9785042 125.758523,20.5055108 125.042614,24.2888661 C123.610795,21.0463989 119.673295,17.25732 112.607955,17.25732 C104.642045,17.25732 98.3806818,21.3154121 98.3806818,30.5992279 C98.3806818,41.2338332 106.34375,45.6496555 120.389205,45.6496555 C121.463068,45.6496555 123.522727,45.5609384 124.684659,45.4722213 L124.684659,49.6161687 C124.684659,56.5589976 122.985795,59.5324516 118.241477,59.5324516 C113.144886,59.5324516 111.713068,56.1039647 111.085227,51.3304121 L101.244318,51.3304121 L101.244318,60.5197871 C105.985795,63.3158068 113.323864,65.5680766 120.480114,65.5680766 C130.857955,65.5680766 138.017045,60.97482 138.017045,50.42607 C138.017045,47.7244911 137.659091,40.2436358 137.659091,32.0415963 C137.659091,25.2819253 138.642045,24.2001489 143.386364,24.0198529 L143.386364,24.0198529 Z" transform="matrix(1 0 0 -1 0 82.825)"/>
    <path d="M173.519591,13.7386966 C171.013909,11.2174137 168.150273,9.95534132 165.198568,9.95534132 C159.920159,9.95534132 156.789477,13.5612624 156.789477,26.3594203 C156.789477,38.9744203 160.457091,42.1310321 165.826409,42.1310321 C168.690045,42.1310321 171.462773,41.2295518 173.519591,38.7969861 L173.519591,13.7386966 Z M254.976977,65.3863611 L254.976977,61.1479729 C258.556523,61.0592558 260.434364,60.2493545 260.434364,57.2730387 C260.434364,56.7321505 260.434364,56.0109663 260.255386,55.2926439 L255.065045,29.8737624 C253.991182,24.6480387 253.187205,17.3446176 252.917318,15.2726439 L252.383227,15.2726439 C252.025273,17.3446176 251.397432,22.3013282 249.431523,29.9653413 L240.39175,65.3863611 L230.999705,65.3863611 L222.587773,29.7821834 C220.798,22.1238939 220.082091,16.5347163 219.903114,15.181065 L219.457091,15.181065 C219.366182,16.9868874 219.099136,22.5732032 217.667318,29.7821834 L213.147432,52.156065 L212.386068,55.9222492 C212.298,56.4631374 212.209932,57.0011637 212.209932,57.4533347 C212.209932,59.8859005 213.729818,61.0592558 217.397432,61.1479729 L217.397432,65.3863611 L192.249705,65.3863611 L192.167318,65.3863611 L167.022432,65.3863611 L167.022432,61.1479729 C170.420159,60.6986637 171.763909,59.7971834 172.834932,55.1094861 C172.834932,55.1094861 173.681523,51.394815 173.519591,45.2847821 C171.283795,48.0808018 167.258227,49.7006045 162.783795,49.7006045 C151.153114,49.7006045 142.383227,42.2226111 142.383227,25.3663611 C142.383227,8.873565 149.900273,1.66172289 160.369023,1.66172289 C166.451409,1.66172289 171.729818,4.72961763 174.2355,8.873565 C174.2355,8.873565 174.215614,2.74349921 177.499705,2.74349921 L192.488341,2.74349921 L192.488341,6.43813737 C187.746864,6.79872947 186.761068,7.51991368 186.761068,14.0992887 L186.761068,47.3510321 L186.761068,57.3875124 L186.761068,57.4533347 C186.761068,59.8715913 188.508227,60.8760979 192.013909,60.8303084 C195.522432,60.8303084 196.911636,59.7857361 197.982659,55.1094861 L198.658795,52.156065 L209.971295,2.74349921 L223.212773,2.74349921 L230.371864,32.2176111 C231.624705,37.2659005 232.519591,43.5734005 232.786636,45.6453742 L233.2355,45.6453742 C233.502545,43.5734005 233.951409,38.3476768 235.474136,32.3063282 L242.988341,2.74349921 L256.138909,2.74349921 L268.218455,54.9320518 C269.292318,59.6168874 270.812205,60.6986637 274.482659,61.1479729 L274.482659,65.3863611 L254.976977,65.3863611 Z" transform="matrix(1 0 0 -1 0 67.048)"/>
    <path d="M288.933795,59.7056045 C283.297432,59.7056045 280.79175,55.2897821 280.79175,41.0492558 C280.79175,28.4313939 282.581523,22.8422163 289.109932,22.8422163 C294.47925,22.8422163 297.163909,28.5229729 297.163909,42.4000453 C297.163909,55.47294 294.303114,59.7056045 288.933795,59.7056045 M288.663909,17.2559005 C274.618455,17.2559005 266.206523,26.0875453 266.206523,41.2295518 C266.206523,55.8306703 275.152545,65.4750782 289.29175,65.4750782 C302.35425,65.4750782 311.658227,57.8139268 311.658227,42.042315 C311.658227,24.9170518 301.101409,17.2559005 288.663909,17.2559005" transform="matrix(1 0 0 -1 0 82.731)"/>
    <path d="M311.658227,21.3134203 C316.132659,21.4049992 317.118455,22.4839137 317.118455,27.6237821 L317.118455,49.0732887 C317.118455,55.6526637 316.220727,56.5541439 311.749136,56.7373018 L311.749136,60.7009532 L326.155386,64.3040124 L327.496295,64.3040124 C328.391182,62.6842097 330.090045,58.6289795 330.269023,52.7679268 C332.507659,60.5206571 338.232091,64.3040124 343.064477,64.3040124 C344.496295,64.3040124 345.749136,64.0378611 346.465045,63.7659861 L343.959364,50.155065 C342.348568,50.6043742 341.186636,50.8762492 339.038909,50.8762492 C332.237773,50.8762492 330.448,48.7126966 330.448,41.6840124 L330.448,27.6237821 C330.448,22.4839137 331.433795,21.4049992 337.519023,21.3134203 L337.519023,17.25819 L311.658227,17.25819 L311.658227,21.3134203 Z" transform="matrix(1 0 0 -1 0 81.562)"/>
    <path d="M388.0105,7.15760447 C390.516182,3.19109132 392.396864,2.56148605 395.348568,2.20089395 L395.348568,-1.85433632 L378.706523,-1.85433632 L364.121295,21.5784268 L375.663909,34.2850058 C376.649705,35.4612229 377.183795,36.4485584 377.183795,37.3529005 C377.183795,38.7952689 375.663909,39.7854663 372.891182,39.8770453 L372.891182,44.0209926 L393.288909,44.0209926 L393.288909,39.8770453 C389.712205,39.4220124 387.3855,37.7134926 383.984932,34.1075716 L376.021864,25.6336571 L388.0105,7.15760447 Z M368.865614,2.20089395 L368.865614,-1.85433632 L344.706523,-1.85433632 L344.706523,2.20089395 C349.180955,2.29247289 350.163909,3.37138737 350.163909,8.51125579 L350.163909,50.2397755 C350.163909,56.8220124 348.823,57.7206308 344.348568,57.9009268 L344.348568,61.86744 L360.453682,64.3028676 L361.794591,64.3028676 C362.601409,62.9492163 363.405386,60.0644795 363.405386,55.3796439 L363.405386,8.32809789 C363.405386,3.46296632 364.212205,2.29247289 368.865614,2.20089395 L368.865614,2.20089395 Z" transform="matrix(1 0 0 -1 0 62.449)"/>
    <path d="M398.486364,21.1322542 L398.486364,30.8625174 L407.344318,30.8625174 C407.972159,24.5550174 411.281818,22.8436358 416.199432,22.8436358 C420.585795,22.8436358 423.628409,24.5550174 423.628409,28.5215305 C423.628409,32.2161687 421.571591,33.7472542 417.367045,34.7403134 L410.475,36.2742608 C403.048864,37.8940634 398.665341,42.4014647 398.665341,50.2429121 C398.665341,60.4253463 406.807386,65.4736358 416.651136,65.4736358 C424.611364,65.4736358 429.710795,63.3100832 432.128409,62.2311687 L432.128409,52.6754779 L423.895455,52.6754779 C423.179545,57.8124845 420.139773,59.615445 415.577273,59.615445 C411.457955,59.615445 409.134091,57.8124845 409.134091,54.3010042 C409.134091,51.3246884 410.742045,49.7936029 414.861364,48.8892608 L420.94375,47.5413332 C429.798864,45.5552147 434.810227,40.6900832 434.810227,32.5767608 C434.810227,22.8436358 427.653977,17.25732 415.128409,17.25732 C405.645455,17.25732 400.992045,19.7786029 398.486364,21.1322542" transform="matrix(1 0 0 -1 0 82.731)"/>
    <path d="M443.055386,15.1713347 C438.507091,15.1713347 434.811068,11.4881439 434.811068,6.86626895 C434.811068,2.28159789 438.507091,-1.44165868 443.055386,-1.44165868 C447.646295,-1.44165868 451.299705,2.28159789 451.299705,6.86626895 C451.299705,11.4881439 447.646295,15.1713347 443.055386,15.1713347 M443.055386,-0.265441579 C439.126409,-0.265441579 435.975841,2.94554526 435.975841,6.86626895 C435.975841,10.8614005 439.126409,13.9951176 443.055386,13.9951176 C446.984364,13.9951176 450.134932,10.8614005 450.134932,6.86626895 C450.134932,2.94554526 446.984364,-0.265441579 443.055386,-0.265441579 M443.757091,11.6054795 L439.904818,11.6054795 L439.904818,2.08413079 L441.188909,2.08413079 L441.188909,5.84745316 L442.862205,5.84745316 L445.311068,2.08413079 L446.904818,2.08413079 L444.37925,5.88751895 C444.921864,5.88751895 446.788341,6.59153211 446.788341,8.70643342 C446.788341,10.4693282 445.350841,11.6054795 443.757091,11.6054795 M441.188909,7.02367026 L441.188909,10.4693282 L443.757091,10.4693282 C444.569591,10.4693282 445.467318,9.765315 445.467318,8.70643342 C445.467318,7.72768342 444.569591,7.02367026 443.757091,7.02367026 L441.188909,7.02367026" transform="matrix(1 0 0 -1 0 13.73)"/>
  </g>
</svg>
