<svg xmlns="http://www.w3.org/2000/svg" width="177" height="41" viewBox="0 0 177 41">
    <defs>
        <filter id="73a0m4mp4a" width="104.5%" height="120%" x="-2.3%" y="-10%" filterUnits="objectBoundingBox">
            <feOffset dy="1" in="SourceAlpha" result="shadowOffsetOuter1"/>
            <feGaussianBlur in="shadowOffsetOuter1" result="shadowBlurOuter1" stdDeviation=".5"/>
            <feColorMatrix in="shadowBlurOuter1" result="shadowMatrixOuter1" values="0 0 0 0 0 0 0 0 0 0 0 0 0 0 0 0 0 0 0.364696558 0"/>
            <feMerge>
                <feMergeNode in="shadowMatrixOuter1"/>
                <feMergeNode in="SourceGraphic"/>
            </feMerge>
        </filter>
    </defs>
    <g fill="none" fill-rule="evenodd">
        <g fill="#FFF">
            <g>
                <g>
                    <g>
                        <g filter="url(#73a0m4mp4a)" transform="translate(-217 -226) translate(133 204) translate(27 18) translate(57 5)">
                            <g>
                                <g>
                                    <g>
                                        <path d="M132.457 14.502h6.811c.126-1.835-1.079-3.173-2.968-3.335-2.093-.18-3.65 1.156-3.843 3.335m-.098 3.185c-.037 1.812.911 3.073 2.565 3.492 1.56.395 3.034.168 4.439-.6.388-.213.779-.447 1.197-.576.744-.228 1.42.056 1.813.679.386.613.367 1.499-.213 1.978-.676.558-1.425 1.083-2.227 1.42-2.132.896-4.342.928-6.547.25-2.2-.674-3.672-2.129-4.334-4.334-.709-2.36-.73-4.757-.043-7.125.828-2.854 3.11-4.704 6.081-4.854 1.164-.058 2.379.029 3.507.307 2.908.718 4.169 3.234 4.422 5.786.05.501.038 1.01.022 1.515-.046 1.437-.658 2.05-2.097 2.057-2.639.014-5.278.005-7.918.005h-.667M121.981 10.802c.983-1.302 2.252-1.984 3.875-2.002 1.385-.016 2.257 1.322 1.642 2.464-.28.52-.735.836-1.36.915-.44.055-.89.053-1.32.142-1.896.391-2.877 1.702-2.894 3.882-.017 2.267 0 4.535-.007 6.802-.003.796-.426 1.363-1.216 1.65-.78.283-1.51.151-2.129-.387-.479-.417-.573-.958-.572-1.542.008-3.748.004-7.496.004-11.244 0-.225-.005-.45.002-.675.037-1.035.752-1.763 1.804-1.84 1.074-.079 1.913.563 2.102 1.608.009.05.03.1.07.227M111.031 17.6c-1.597 0-3.195-.072-4.783.028-.917.058-1.44.787-1.517 1.695-.078.91.376 1.687 1.227 2.013.352.135.734.214 1.108.258 2.56.301 4.432-1.6 3.965-3.994m.046 5.275c-2.138 2.122-5.246 2.542-7.74.998-1.895-1.174-2.494-2.998-2.262-5.138.203-1.884 1.55-3.365 3.494-3.836.844-.204 1.728-.283 2.598-.318 1.29-.052 2.582-.013 3.862-.013.258-1.693-.685-2.94-2.305-3.166-1.33-.187-2.529.128-3.634.88-.3.205-.606.41-.933.56-.738.338-1.514.116-1.979-.532-.442-.615-.402-1.418.125-2.028.994-1.15 2.265-1.818 3.73-2.09 1.497-.278 3-.266 4.483.117 2.718.703 4.228 2.656 4.243 5.505.015 2.903.006 5.806.002 8.708-.002 1.077-.623 1.895-1.514 2.02-1.018.142-1.774-.4-2.108-1.512-.016-.052-.04-.101-.062-.155M87.925 10.325C90 8.24 93.272 7.734 95.834 9.017c1.634.818 2.32 2.218 2.558 3.876.078.544.1 1.098.102 1.648.01 2.737.007 5.475.002 8.213-.001.842-.425 1.445-1.19 1.736-.733.28-1.628.11-2.154-.4-.426-.411-.506-.923-.505-1.47.004-2.434.025-4.868-.013-7.3-.011-.692-.143-1.396-.327-2.066-.169-.612-.664-1.017-1.27-1.28-1.868-.81-4.258-.043-4.819 1.611-.21.62-.272 1.306-.28 1.963-.032 2.414-.01 4.83-.015 7.244-.001.851-.43 1.45-1.205 1.714-.819.28-1.828.091-2.244-.58-.274-.443-.399-1.033-.401-1.557-.026-6.692-.017-13.385-.015-20.077 0-.246.011-.495.044-.739.105-.779.736-1.396 1.542-1.524 1.254-.198 2.275.627 2.279 1.863.007 2.586.002 5.172.002 7.757v.676zM73.05 24.8c-3.139-.135-5.89-1.094-8.105-3.387-.345-.357-.647-.78-.88-1.222-.414-.788-.214-1.647.444-2.223.651-.572 1.446-.647 2.176-.113.607.444 1.134.998 1.729 1.46 2.146 1.668 4.534 2.028 7.098 1.253 1.072-.325 1.798-1.021 2.013-2.183.236-1.271-.148-2.332-1.242-2.967-.994-.576-2.08-.998-3.145-1.438-1.583-.655-3.248-1.14-4.764-1.924-3.208-1.655-4.373-5.352-2.776-8.461.957-1.864 2.557-2.899 4.536-3.298 2.748-.553 5.444-.373 8.014.87.933.452 1.75 1.052 2.414 1.865.747.917.76 2.004.014 2.74-.756.744-1.711.73-2.632-.104-1.217-1.105-2.617-1.832-4.24-1.926-.961-.056-1.964.057-2.9.29-1.023.254-1.676 1.02-1.824 2.12-.147 1.09.372 1.902 1.28 2.347 1.258.617 2.573 1.126 3.888 1.616 1.625.606 3.272 1.136 4.72 2.156 2.373 1.673 3.067 4.019 2.647 6.77-.422 2.76-2.174 4.377-4.726 5.105-1.211.345-2.49.444-3.738.654M50.024 14.51h6.813c.142-1.847-1.16-3.251-3.078-3.352-2.071-.11-3.644 1.279-3.735 3.352m-.097 3.183c-.086 1.742.873 3.051 2.502 3.483 1.666.442 3.23.16 4.706-.7.235-.136.471-.274.72-.378.84-.35 1.638-.118 2.089.594.419.662.295 1.538-.315 2.129-1.077 1.04-2.426 1.517-3.852 1.787-1.912.363-3.797.228-5.596-.549-1.927-.831-3.132-2.315-3.663-4.333-.586-2.222-.61-4.457-.008-6.682.802-2.97 3.17-4.923 6.253-5.035 1.147-.041 2.342.051 3.45.335 2.578.66 3.803 2.596 4.277 5.073.137.717.133 1.47.121 2.205-.021 1.43-.664 2.059-2.089 2.067-2.254.013-4.508.004-6.762.004h-1.833M37.841 11.972c-1.704-.216-2.25-.608-2.278-1.571-.018-.593.2-1.103.717-1.348.449-.212.98-.248 1.584-.387 0-.72-.053-1.506.01-2.284.252-3.161 2.547-5.372 5.717-5.549.344-.019.693-.052 1.034-.02.81.079 1.407.736 1.442 1.54.033.76-.509 1.48-1.271 1.637-.45.092-.917.092-1.363.196-1.112.257-1.79 1.076-1.838 2.21-.029.672-.015 1.346-.018 2.019 0 .095.015.19.031.384.779 0 1.56-.027 2.337.006 1.086.047 1.761 1.093 1.383 2.095-.23.61-.787 1.001-1.47 1.01-.729.01-1.458.003-2.283.003v.69c0 3.405-.002 6.81.001 10.216.001.826-.31 1.48-1.091 1.8-.742.306-1.47.239-2.1-.317-.441-.388-.548-.896-.547-1.458.007-3.406.003-6.811.003-10.216v-.656M30.82 17.568c-1.663 0-3.293-.053-4.918.02-1.008.044-1.637.73-1.744 1.635-.116.972.364 1.774 1.311 2.112.354.126.738.195 1.114.24 2.712.328 4.608-1.455 4.238-4.007m.016-3.006c.159-1.84-.774-2.948-2.563-3.17-1.318-.165-2.516.12-3.62.816-.336.212-.673.429-1.032.598-.793.372-1.654.17-2.157-.478-.503-.647-.43-1.471.185-2.115.97-1.015 2.167-1.646 3.561-1.948 1.722-.372 3.447-.358 5.144.078 2.91.746 4.381 2.677 4.393 5.685.01 2.765.003 5.53.002 8.295-.001 1.246-.597 2.062-1.598 2.2-1.13.155-1.912-.412-2.284-1.644-2.147 2.205-4.767 2.31-7.475 1.329-3.468-1.257-4.308-6.149-1.515-8.293 1.364-1.047 2.962-1.332 4.643-1.35 1.426-.015 2.853-.003 4.316-.003M9.528 24.73c-3.207-.064-6.03-1.012-8.33-3.233-.325-.313-.604-.68-.857-1.05-.545-.8-.424-1.752.27-2.396.689-.638 1.601-.712 2.412-.128.577.416 1.082.927 1.647 1.36 2.134 1.636 4.544 2.046 7.14 1.394 1.631-.41 2.299-1.217 2.466-2.77.12-1.111-.571-2.22-1.94-2.817-1.348-.587-2.746-1.072-4.142-1.547-1.705-.581-3.347-1.236-4.836-2.281C.203 9.049-.03 2.685 5.154.828 8.9-.514 12.609-.17 16.037 1.936c.578.355 1.073.882 1.506 1.407.646.783.539 1.84-.155 2.497-.724.686-1.711.738-2.552.045-.91-.751-1.863-1.413-3.013-1.763-1.551-.472-3.113-.547-4.663-.018-.832.285-1.44.837-1.728 1.669-.357 1.034-.018 2.1 1.038 2.662 1.096.585 2.283 1.016 3.445 1.48 1.625.65 3.339 1.133 4.883 1.928 3.752 1.932 4.883 6.559 2.504 9.81-1.201 1.64-2.953 2.404-4.915 2.76-.94.171-1.906.216-2.86.318" transform="translate(0 14.4)"/>
                                    </g>
                                </g>
                            </g>
                        </g>
                    </g>
                </g>
            </g>
        </g>
    </g>
</svg>
